<?xml version="1.0" encoding="UTF-8"?>
<!DOCTYPE svg PUBLIC "-//W3C//DTD SVG 1.1//EN" "http://www.w3.org/Graphics/SVG/1.1/DTD/svg11.dtd">
<!-- Creator: CorelDRAW X7 -->
<svg xmlns="http://www.w3.org/2000/svg" xml:space="preserve" width="100px" height="100px" version="1.1" style="shape-rendering:geometricPrecision; text-rendering:geometricPrecision; image-rendering:optimizeQuality; fill-rule:evenodd; clip-rule:evenodd"
viewBox="0 0 1000 1000"
 xmlns:xlink="http://www.w3.org/1999/xlink">
 <defs>
  <style type="text/css">
   <![CDATA[
    .fil0 {fill:pink}
   ]]>
  </style>
 </defs>
 <g id="Camada_x0020_1">
  <metadata id="CorelCorpID_0Corel-Layer"/>
  <path class="fil0" d="M783 181c13,33 23,70 27,106l0 4 0 0 0 6 0 0c0,7 0,10 0,14 0,30 -4,60 -14,86l0 0 0 4 0 0 0 3 0 0 -3 3c-7,27 -20,54 -37,74 -3,10 -6,16 -13,26l-77 127c-10,13 -79,123 -79,126 66,4 302,37 309,117 3,33 -36,60 -83,76l0 0c-30,10 -63,20 -103,27l-4 3 0 0 -3 0c-7,0 -10,0 -13,4 -17,0 -70,10 -90,10l-7 0c-3,0 -3,0 -7,0 -3,0 -3,0 -6,0l-4 0c-16,3 -36,3 -56,3l-3 0 0 0 -7 0 0 0 0 0 -10 0 0 0 -7 0 -3 0 0 0 -7 0 -3 0 -3 0 -7 0 0 0 -3 0 -7 0 0 0 -7 0 -3 0 -3 0 -7 0 0 0 -7 0 -3 -3 0 0 -7 0 -3 0 0 0c-70,-4 -147,-14 -206,-34l-7 -3c-30,-10 -57,-20 -73,-33l-4 -4 0 0c0,0 -3,-3 -6,-6l0 0 0 0 -4 0 0 0 0 -4 0 0c-10,-10 -16,-20 -16,-30l0 0 0 0c0,-10 0,-20 6,-26 7,-7 14,-17 24,-24l0 0c16,-13 36,-23 63,-33 60,-20 150,-36 220,-40 0,-3 -37,-60 -44,-66 -13,-24 -26,-47 -43,-70 -27,-44 -106,-167 -120,-210 -20,-67 -23,-130 -3,-193 3,-20 23,-67 33,-77 3,-3 7,-6 10,-13l7 -10c0,-3 0,0 3,-3 0,0 0,-4 3,-4 0,-3 4,-3 4,-6 10,-10 30,-30 40,-40 20,-14 40,-27 66,-40 60,-27 124,-34 183,-24l0 4 7 0 0 0 7 0 3 0 7 3 0 0 6 3 0 0 7 0 0 0 7 4 0 0c80,26 146,83 183,163l0 0zm-143 746l-4 0 0 0 0 0 0 0 0 0 0 0 0 0 0 0 -6 3c-4,0 -4,0 -7,0l0 0c-7,0 -13,3 -23,3l-53 4c-14,0 -30,0 -47,0 -43,0 -83,0 -117,-7l-3 0 0 0c-37,-3 -70,-13 -97,-23 -69,-27 -73,-53 -3,-80 37,-13 123,-33 160,-30 10,13 20,30 30,47l30 46c10,-10 53,-83 63,-93 43,-3 150,20 190,47 37,26 7,43 -23,56 -14,7 -27,13 -44,17 -6,3 -40,10 -46,10l0 0 0 0zm-137 -753c73,0 133,60 133,137 0,73 -60,133 -133,133 -76,0 -136,-60 -136,-133 0,-77 60,-137 136,-137z"/>
 </g>
</svg>
