<?xml version="1.0" encoding="UTF-8"?>
<!DOCTYPE svg PUBLIC "-//W3C//DTD SVG 1.1//EN" "http://www.w3.org/Graphics/SVG/1.1/DTD/svg11.dtd">
<!-- Creator: CorelDRAW X7 -->
<svg xmlns="http://www.w3.org/2000/svg" xml:space="preserve" width="30px" height="30px" version="1.1" style="shape-rendering:geometricPrecision; text-rendering:geometricPrecision; image-rendering:optimizeQuality; fill-rule:evenodd; clip-rule:evenodd"
viewBox="0 0 300 300"
 xmlns:xlink="http://www.w3.org/1999/xlink">
 <defs>
  <style type="text/css">
   <![CDATA[
    .fil1 {fill:white;fill-rule:nonzero}
    .fil0 {fill:url(#id0);fill-rule:nonzero}
   ]]>
  </style>
  <linearGradient id="id0" gradientUnits="userSpaceOnUse" x1="286.051" y1="8.42126" x2="6.49606" y2="299.327">
   <stop offset="0" style="stop-opacity:1; stop-color:#4845A2"/>
   <stop offset="0.329412" style="stop-opacity:1; stop-color:#A844A1"/>
   <stop offset="0.34902" style="stop-opacity:1; stop-color:#A844A1"/>
   <stop offset="0.431373" style="stop-opacity:1; stop-color:#A844A1"/>
   <stop offset="0.65098" style="stop-opacity:1; stop-color:#D7233E"/>
   <stop offset="0.658824" style="stop-opacity:1; stop-color:#D7233E"/>
   <stop offset="0.968627" style="stop-opacity:1; stop-color:#F8A325"/>
   <stop offset="1" style="stop-opacity:1; stop-color:#F8A325"/>
  </linearGradient>
 </defs>
 <g id="Camada_x0020_1">
  <metadata id="CorelCorpID_0Corel-Layer"/>
  <path class="fil0" d="M253 0l-206 0c-26,0 -47,24 -47,53l0 192c0,30 22,55 49,55l204 0c26,0 47,-24 47,-53l0 -194c0,-29 -21,-53 -47,-53z"/>
  <g id="_2865862213376">
   <g>
    <g>
     <g>
      <g>
       <path class="fil1" d="M218 271l-136 0c-29,0 -52,-23 -52,-51l0 -140c0,-28 23,-51 52,-51l136 0c29,0 52,23 52,51l0 140c0,28 -23,51 -52,51zm-136 -221l0 0c-17,0 -31,13 -31,30l0 140c0,17 14,30 31,30l136 0c17,0 31,-13 31,-30l0 -140c0,-17 -14,-30 -31,-30l-136 0z"/>
      </g>
      <g>
       <path class="fil1" d="M150 213c-35,0 -63,-28 -63,-63 0,-35 28,-63 63,-63 35,0 63,28 63,63 0,35 -28,63 -63,63zm0 -105l0 0c-23,0 -42,19 -42,42 0,23 19,42 42,42 23,0 42,-19 42,-42 0,-23 -19,-42 -42,-42z"/>
      </g>
      <path class="fil1" d="M232 84c0,8 -7,15 -15,15 -8,0 -14,-7 -14,-15 0,-8 6,-14 14,-14 8,0 15,6 15,14z"/>
     </g>
    </g>
   </g>
  </g>
 </g>
</svg>
