<?xml version="1.0" encoding="UTF-8"?>
<!DOCTYPE svg PUBLIC "-//W3C//DTD SVG 1.1//EN" "http://www.w3.org/Graphics/SVG/1.1/DTD/svg11.dtd">
<!-- Creator: CorelDRAW X7 -->
<svg xmlns="http://www.w3.org/2000/svg" xml:space="preserve" width="100px" height="100px" version="1.1" style="shape-rendering:geometricPrecision; text-rendering:geometricPrecision; image-rendering:optimizeQuality; fill-rule:evenodd; clip-rule:evenodd"
viewBox="0 0 1000 1000"
 xmlns:xlink="http://www.w3.org/1999/xlink">
 <defs>
  <style type="text/css">
   <![CDATA[
    .fil0 {fill:pink}
   ]]>
  </style>
 </defs>
 <g id="Camada_x0020_1">
  <metadata id="CorelCorpID_0Corel-Layer"/>
  <path class="fil0" d="M144 777c-23,-30 -47,-70 -63,-103 -50,-117 -47,-257 10,-370 16,-37 40,-70 66,-103 10,-10 17,-20 27,-27 37,-36 77,-66 133,-90 297,-130 633,87 637,410 0,73 -14,130 -37,187 -23,56 -53,93 -90,133 -73,80 -200,140 -310,140 -80,3 -213,-10 -250,-90 -13,-27 -6,-63 10,-83 14,6 24,26 47,13 43,-30 83,-83 97,-137 10,-26 -27,-30 -27,-73 3,-47 77,-213 123,-247 24,-16 47,-6 70,-30 23,-26 50,-113 43,-153 -3,-26 -16,-26 -43,-26 -20,0 -40,3 -60,6 -23,7 -30,14 -43,24 -10,13 -20,26 -30,36 -20,27 -37,50 -57,77 -56,80 -103,176 -133,270 -13,33 -43,126 -33,166 3,17 13,30 20,44 -34,33 -47,96 -20,143 36,63 126,93 210,103 213,23 413,-93 499,-260 27,-53 54,-116 57,-193 13,-133 -27,-260 -110,-360 -73,-90 -193,-173 -356,-183 -164,-10 -290,60 -370,137 -80,69 -153,189 -160,346 -4,113 26,210 90,290 6,10 20,23 30,33 16,13 26,13 46,3l-23 -33 0 0zm190 37c17,10 50,33 77,23 36,-16 86,-86 86,-126 -3,-14 -13,-27 -20,-34 -10,-6 -23,-16 -33,-20 -10,14 -3,64 -90,140 -7,7 -13,10 -20,17l0 0zm263 -480c7,3 33,10 40,10 17,7 27,7 40,-3 33,-27 60,-113 43,-150 -10,-20 -46,-37 -63,-40 -3,37 -7,70 -17,103 -6,20 -16,43 -30,60 -3,7 -10,13 -13,20l0 0z"/>
 </g>
</svg>
